{
	"asset":{
		"generator":"Khronos glTF Blender I/O v5.0.21",
		"version":"2.0"
	},
	"scene":0,
	"scenes":[
		{
			"name":"Scene",
			"nodes":[
				0,
				25
			]
		}
	],
	"nodes":[
		{
			"mesh":0,
			"name":"Plane",
			"rotation":[
				0.7071068286895752,
				0,
				0,
				0.7071068286895752
			],
			"scale":[
				1,
				1,
				2
			],
			"translation":[
				-4,
				0,
				0
			]
		},
		{
			"name":"head_leaf",
			"rotation":[
				-0.7071067690849304,
				2.353882713745925e-12,
				-2.3413217978968115e-12,
				0.7071067690849304
			],
			"scale":[
				1,
				0.9999998807907104,
				1
			],
			"translation":[
				3.795547209861638e-12,
				0.5682721138000488,
				-1.4901159417490817e-08
			]
		},
		{
			"children":[
				1
			],
			"name":"head",
			"rotation":[
				-0.16018222272396088,
				-1.176694794935429e-07,
				-1.9091915604008136e-08,
				0.9870874285697937
			],
			"translation":[
				0.003225692780688405,
				0.424530029296875,
				-0.012715444900095463
			]
		},
		{
			"name":"shoulder.L.002_leaf",
			"rotation":[
				1.3660503839219018e-07,
				0.70710688829422,
				-0.7071066498756409,
				2.3551037031666056e-07
			],
			"scale":[
				0.9999998807907104,
				0.9999998807907104,
				0.9999998807907104
			],
			"translation":[
				2.9075804874878486e-08,
				0.5180650353431702,
				-4.549250576246777e-08
			]
		},
		{
			"children":[
				3
			],
			"name":"shoulder.L.002",
			"rotation":[
				-1.4508897194787096e-08,
				3.2019394780036237e-07,
				-0.0026315683498978615,
				0.999996542930603
			],
			"scale":[
				1,
				1.0000001192092896,
				1
			],
			"translation":[
				-1.0244550985305523e-08,
				0.4643102288246155,
				1.4210854715202004e-14
			]
		},
		{
			"children":[
				4
			],
			"name":"shoulder.L.001",
			"rotation":[
				-6.265379681735794e-08,
				-7.464518603228498e-08,
				0.39650508761405945,
				0.9180325269699097
			],
			"scale":[
				0.9999998807907104,
				1,
				1
			],
			"translation":[
				-1.1920928955078125e-07,
				0.4902693033218384,
				-3.552713678800501e-15
			]
		},
		{
			"children":[
				5
			],
			"name":"shoulder.L",
			"rotation":[
				-0.06312601268291473,
				0.14721904695034027,
				0.9072051644325256,
				0.38899922370910645
			],
			"scale":[
				1.000000238418579,
				1,
				1
			],
			"translation":[
				-0.1283295452594757,
				0.26086926460266113,
				0.04183812066912651
			]
		},
		{
			"name":"shoulder.R.002_leaf",
			"rotation":[
				1.3660502418133547e-07,
				-0.70710688829422,
				0.7071066498756409,
				2.0547203405385517e-07
			],
			"scale":[
				0.9999998807907104,
				0.9999998807907104,
				0.9999998807907104
			],
			"translation":[
				-2.9075804874878486e-08,
				0.5180650353431702,
				-3.818691851620315e-08
			]
		},
		{
			"children":[
				7
			],
			"name":"shoulder.R.002",
			"rotation":[
				-1.4732163045039215e-08,
				-3.2008111361392366e-07,
				0.0026315683498978615,
				0.999996542930603
			],
			"scale":[
				1,
				1.0000001192092896,
				1
			],
			"translation":[
				1.0244550985305523e-08,
				0.4643102288246155,
				1.5987211554602254e-14
			]
		},
		{
			"children":[
				8
			],
			"name":"shoulder.R.001",
			"rotation":[
				-3.015233573933074e-08,
				9.597472683253727e-08,
				-0.39650508761405945,
				0.9180325269699097
			],
			"scale":[
				0.9999999403953552,
				1,
				1.0000001192092896
			],
			"translation":[
				8.940696716308594e-08,
				0.4902693033218384,
				1.7763568394002505e-15
			]
		},
		{
			"children":[
				9
			],
			"name":"shoulder.R",
			"rotation":[
				-0.06312580406665802,
				-0.14721915125846863,
				-0.9072052240371704,
				0.38899922370910645
			],
			"scale":[
				1.000000238418579,
				1,
				1
			],
			"translation":[
				0.1347809135913849,
				0.26086926460266113,
				0.041838183999061584
			]
		},
		{
			"children":[
				2,
				6,
				10
			],
			"name":"spine.003",
			"rotation":[
				0.12013232707977295,
				-7.492756889655554e-15,
				2.8641780502880465e-08,
				0.9927579164505005
			],
			"translation":[
				1.729745235934388e-10,
				0.2721412777900696,
				-1.5670226005681798e-08
			]
		},
		{
			"children":[
				11
			],
			"name":"spine.002",
			"rotation":[
				0.10923667997121811,
				-3.0156482034291755e-15,
				2.604405757722361e-08,
				0.9940158128738403
			],
			"translation":[
				-9.402256750945526e-11,
				0.2664531469345093,
				-3.0571385423172615e-08
			]
		},
		{
			"children":[
				12
			],
			"name":"spine.001",
			"rotation":[
				-0.009404131211340427,
				-1.731937754019877e-14,
				-2.2421196010924405e-09,
				0.9999557733535767
			],
			"scale":[
				1,
				0.9999998211860657,
				0.9999999403953552
			],
			"translation":[
				-1.8752999153548444e-10,
				0.26714885234832764,
				-2.3120806602605626e-08
			]
		},
		{
			"name":"foot.L_leaf",
			"rotation":[
				0.5048773288726807,
				-0.504876434803009,
				0.495074599981308,
				0.49507275223731995
			],
			"scale":[
				1.0000083446502686,
				1.0000004768371582,
				1.0000001192092896
			],
			"translation":[
				-2.2100041796591086e-09,
				0.2991669476032257,
				-2.85276180456151e-09
			]
		},
		{
			"children":[
				14
			],
			"name":"foot.L",
			"rotation":[
				-0.018385423347353935,
				-1.7416122943814116e-07,
				1.307140284900754e-09,
				0.9998310208320618
			],
			"scale":[
				1,
				0.9999998807907104,
				0.9999999403953552
			],
			"translation":[
				8.881784197001252e-15,
				0.6422999501228333,
				-2.7944322411599387e-09
			]
		},
		{
			"children":[
				15
			],
			"name":"leg2.L",
			"rotation":[
				0.02303655445575714,
				9.86903998523303e-08,
				4.4912336960578614e-08,
				0.9997345805168152
			],
			"translation":[
				-5.329070518200751e-15,
				0.7101437449455261,
				3.725187269765229e-09
			]
		},
		{
			"children":[
				16
			],
			"name":"leg1.L",
			"rotation":[
				-0.7063855528831482,
				0.052315838634967804,
				-0.705169677734375,
				0.0319112204015255
			],
			"scale":[
				0.999999463558197,
				0.9999998807907104,
				0.9999915361404419
			],
			"translation":[
				-0.16615235805511475,
				-0.1752222776412964,
				0.055310677736997604
			]
		},
		{
			"name":"foot.R_leaf",
			"rotation":[
				0.5048773288726807,
				0.5048764944076538,
				-0.495074599981308,
				0.4950728714466095
			],
			"scale":[
				1.0000081062316895,
				1.0000004768371582,
				1.0000003576278687
			],
			"translation":[
				-1.552562167717042e-08,
				0.29916730523109436,
				-2.6781190598512694e-09
			]
		},
		{
			"children":[
				18
			],
			"name":"foot.R",
			"rotation":[
				-0.01838541403412819,
				1.7416074626908085e-07,
				-1.3071300708489275e-09,
				0.999830961227417
			],
			"scale":[
				1,
				0.9999999403953552,
				1
			],
			"translation":[
				-2.6645352591003757e-14,
				0.6423001885414124,
				-1.4436021267272281e-08
			]
		},
		{
			"children":[
				19
			],
			"name":"leg2.R",
			"rotation":[
				0.02303653582930565,
				-5.1529386979609626e-08,
				-3.482017163491946e-08,
				0.9997345805168152
			],
			"scale":[
				1,
				0.9999999403953552,
				1
			],
			"translation":[
				2.942091015256665e-15,
				0.7101437449455261,
				1.862473730795955e-09
			]
		},
		{
			"children":[
				20
			],
			"name":"leg1.R",
			"rotation":[
				-0.7063857316970825,
				-0.052315857261419296,
				0.7051694989204407,
				0.031911201775074005
			],
			"scale":[
				0.9999994039535522,
				0.9999996423721313,
				0.999991774559021
			],
			"translation":[
				0.17260369658470154,
				-0.1752222776412964,
				0.05531075596809387
			]
		},
		{
			"children":[
				13,
				17,
				21
			],
			"name":"spine",
			"rotation":[
				-0.05956346169114113,
				1.189976543969351e-07,
				-7.100521948188998e-09,
				0.9982245564460754
			],
			"translation":[
				-0.0032256897538900375,
				1.8463419675827026,
				-0.07575490325689316
			]
		},
		{
			"mesh":1,
			"name":"body",
			"skin":0
		},
		{
			"mesh":2,
			"name":"head",
			"skin":0
		},
		{
			"children":[
				23,
				24,
				22
			],
			"name":"Armature"
		}
	],
	"meshes":[
		{
			"name":"Plane",
			"primitives":[
				{
					"attributes":{
						"POSITION":0,
						"NORMAL":1,
						"TEXCOORD_0":2
					},
					"indices":3
				}
			]
		},
		{
			"name":"Cylinder.003",
			"primitives":[
				{
					"attributes":{
						"POSITION":4,
						"NORMAL":5,
						"TEXCOORD_0":6,
						"COLOR_0":7,
						"JOINTS_0":8,
						"WEIGHTS_0":9
					},
					"indices":10
				}
			]
		},
		{
			"name":"Cylinder.001",
			"primitives":[
				{
					"attributes":{
						"POSITION":12,
						"NORMAL":13,
						"TEXCOORD_0":14,
						"COLOR_0":15,
						"JOINTS_0":16,
						"WEIGHTS_0":17
					},
					"indices":18
				}
			]
		}
	],
	"skins":[
		{
			"inverseBindMatrices":11,
			"joints":[
				22,
				13,
				12,
				11,
				2,
				1,
				6,
				5,
				4,
				3,
				10,
				9,
				8,
				7,
				17,
				16,
				15,
				14,
				21,
				20,
				19,
				18
			],
			"name":"Armature"
		}
	],
	"accessors":[
		{
			"bufferView":0,
			"componentType":5126,
			"count":4,
			"max":[
				1,
				0,
				-5.960464477539063e-08
			],
			"min":[
				-1,
				0,
				-2
			],
			"type":"VEC3"
		},
		{
			"bufferView":1,
			"componentType":5126,
			"count":4,
			"type":"VEC3"
		},
		{
			"bufferView":2,
			"componentType":5126,
			"count":4,
			"type":"VEC2"
		},
		{
			"bufferView":3,
			"componentType":5123,
			"count":6,
			"type":"SCALAR"
		},
		{
			"bufferView":4,
			"componentType":5126,
			"count":1404,
			"max":[
				0.5896841287612915,
				2.9968926906585693,
				0.3153008818626404
			],
			"min":[
				-0.5896841287612915,
				0.0023171030916273594,
				-0.3153008818626404
			],
			"type":"VEC3"
		},
		{
			"bufferView":5,
			"componentType":5126,
			"count":1404,
			"type":"VEC3"
		},
		{
			"bufferView":6,
			"componentType":5126,
			"count":1404,
			"type":"VEC2"
		},
		{
			"bufferView":7,
			"componentType":5123,
			"count":1404,
			"normalized":true,
			"type":"VEC4"
		},
		{
			"bufferView":8,
			"componentType":5121,
			"count":1404,
			"type":"VEC4"
		},
		{
			"bufferView":9,
			"componentType":5126,
			"count":1404,
			"type":"VEC4"
		},
		{
			"bufferView":10,
			"componentType":5123,
			"count":3264,
			"type":"SCALAR"
		},
		{
			"bufferView":11,
			"componentType":5126,
			"count":22,
			"type":"MAT4"
		},
		{
			"bufferView":12,
			"componentType":5126,
			"count":1116,
			"max":[
				0.32130956649780273,
				3.6605193614959717,
				0.32626625895500183
			],
			"min":[
				-0.3213095963001251,
				3.0079867839813232,
				-0.3262662887573242
			],
			"type":"VEC3"
		},
		{
			"bufferView":13,
			"componentType":5126,
			"count":1116,
			"type":"VEC3"
		},
		{
			"bufferView":14,
			"componentType":5126,
			"count":1116,
			"type":"VEC2"
		},
		{
			"bufferView":15,
			"componentType":5123,
			"count":1116,
			"normalized":true,
			"type":"VEC4"
		},
		{
			"bufferView":16,
			"componentType":5121,
			"count":1116,
			"type":"VEC4"
		},
		{
			"bufferView":17,
			"componentType":5126,
			"count":1116,
			"type":"VEC4"
		},
		{
			"bufferView":18,
			"componentType":5123,
			"count":1620,
			"type":"SCALAR"
		}
	],
	"bufferViews":[
		{
			"buffer":0,
			"byteLength":48,
			"byteOffset":0,
			"target":34962
		},
		{
			"buffer":0,
			"byteLength":48,
			"byteOffset":48,
			"target":34962
		},
		{
			"buffer":0,
			"byteLength":32,
			"byteOffset":96,
			"target":34962
		},
		{
			"buffer":0,
			"byteLength":12,
			"byteOffset":128,
			"target":34963
		},
		{
			"buffer":0,
			"byteLength":16848,
			"byteOffset":140,
			"target":34962
		},
		{
			"buffer":0,
			"byteLength":16848,
			"byteOffset":16988,
			"target":34962
		},
		{
			"buffer":0,
			"byteLength":11232,
			"byteOffset":33836,
			"target":34962
		},
		{
			"buffer":0,
			"byteLength":11232,
			"byteOffset":45068,
			"target":34962
		},
		{
			"buffer":0,
			"byteLength":5616,
			"byteOffset":56300,
			"target":34962
		},
		{
			"buffer":0,
			"byteLength":22464,
			"byteOffset":61916,
			"target":34962
		},
		{
			"buffer":0,
			"byteLength":6528,
			"byteOffset":84380,
			"target":34963
		},
		{
			"buffer":0,
			"byteLength":1408,
			"byteOffset":90908
		},
		{
			"buffer":0,
			"byteLength":13392,
			"byteOffset":92316,
			"target":34962
		},
		{
			"buffer":0,
			"byteLength":13392,
			"byteOffset":105708,
			"target":34962
		},
		{
			"buffer":0,
			"byteLength":8928,
			"byteOffset":119100,
			"target":34962
		},
		{
			"buffer":0,
			"byteLength":8928,
			"byteOffset":128028,
			"target":34962
		},
		{
			"buffer":0,
			"byteLength":4464,
			"byteOffset":136956,
			"target":34962
		},
		{
			"buffer":0,
			"byteLength":17856,
			"byteOffset":141420,
			"target":34962
		},
		{
			"buffer":0,
			"byteLength":3240,
			"byteOffset":159276,
			"target":34963
		}
	],
	"buffers":[
		{
			"byteLength":162516,
			"uri":"littleguyywithlb.bin"
		}
	]
}
